<svg width="56" height="56" viewBox="0 0 56 56" fill="none" xmlns="http://www.w3.org/2000/svg">
<path d="M28 56C43.464 56 56 43.464 56 28C56 12.536 43.464 0 28 0C12.536 0 0 12.536 0 28C0 43.464 12.536 56 28 56Z" fill="#D62300"/>
<path fill-rule="evenodd" clip-rule="evenodd" d="M13.1206 36.0673C14.7983 36.079 16.2146 36.0907 17.4816 36.1023C19.6131 36.121 21.3456 36.1362 23.2356 36.1338C22.9346 37.0147 22.4808 37.8862 21.9091 38.6678C21.6525 39.019 21.3678 39.3468 21.0551 39.6432C16.8551 43.6133 12.794 40.2545 13.1206 36.0673ZM35.3546 34.0946C37.7078 33.9604 42.2531 33.8974 44.4056 33.9394C43.8969 38.6936 37.6611 42.4561 34.9824 37.5969C34.5204 36.7593 34.4551 35.6311 34.6849 34.4609C35.0069 34.2171 35.1913 34.1039 35.3546 34.0946ZM37.4763 14.5833L37.5831 14.5888C37.7301 14.6086 37.8549 14.6284 37.9599 14.6553C38.3227 14.7498 38.4569 14.9306 38.4977 15.4673C38.5164 15.5699 39.2549 18.8471 39.2689 19.8924C39.2724 20.1654 38.2574 20.2051 37.5154 20.0126C37.4034 19.9834 37.2961 19.9484 37.2004 19.9088C38.1057 21.6833 39.1184 23.1416 40.1614 24.8006L40.4181 24.8636C42.6406 25.4399 45.2142 26.7571 46.0916 29.1289C47.1381 31.9593 46.3179 31.7539 44.7814 31.7119C44.5761 31.7049 44.3217 31.7026 44.0627 31.6991C43.9052 31.6968 43.7349 31.6956 43.5622 31.6944C43.4036 31.6933 43.2437 31.6921 43.0746 31.6921H42.5087C42.3209 31.6921 42.1284 31.6933 41.9312 31.6944C41.7364 31.6968 41.5427 31.6968 41.3409 31.6991C41.1286 31.7014 40.9116 31.7038 40.6957 31.7061C40.4939 31.7084 40.2944 31.7108 40.0914 31.7143C39.6994 31.7201 39.3051 31.7271 38.9142 31.7353C38.7941 31.7376 38.6786 31.7411 38.5596 31.7434C38.2469 31.7504 37.9366 31.7586 37.6356 31.7668C37.4757 31.7726 37.3252 31.7773 37.1701 31.7819C36.9367 31.7901 36.7057 31.7971 36.4864 31.8053C36.3277 31.8123 36.1807 31.8181 36.0314 31.8251C35.7514 31.8368 35.4691 31.8496 35.2264 31.8636C33.3259 31.9721 32.7064 33.9403 30.8141 33.8061C27.7889 33.8679 25.6119 33.8924 23.6414 33.8983H23.6029C23.2412 33.8994 22.8877 33.8994 22.5366 33.8994L22.4829 33.8993L22.4292 33.8983C22.1189 33.8983 21.8086 33.8983 21.4982 33.8959C21.3862 33.8959 21.2707 33.8948 21.1576 33.8948C20.9126 33.8924 20.6652 33.8924 20.4167 33.8913L20.1391 33.8889C19.8334 33.8878 19.5207 33.8854 19.2034 33.8831C19.1789 33.8819 19.1544 33.8819 19.1299 33.8819C18.3109 33.8749 17.4487 33.8668 16.4956 33.8586C16.3486 33.8574 16.1922 33.8563 16.0417 33.8551C15.7547 33.8528 15.4677 33.8504 15.1644 33.8469C14.8634 33.8446 14.5426 33.8434 14.2229 33.8399C13.5952 33.8353 12.9431 33.8306 12.2314 33.8271C11.8137 33.8248 11.3716 33.8061 10.9621 33.6999C10.4534 33.5681 9.99489 33.3009 9.69739 32.7608C9.35439 32.1378 9.39289 31.2908 9.57489 30.5791C10.0637 28.6611 11.0379 26.9636 12.3936 25.6534C13.6687 24.4214 14.3081 24.1531 16.3824 23.5126C15.6369 22.8616 16.3206 21.1268 17.5677 21.1629C21.0211 21.2644 23.8222 21.1688 27.1414 21.7696C27.1589 21.7731 27.1764 21.7778 27.1939 21.7824C27.8577 21.9539 28.3932 23.0856 27.7702 23.6876C25.4077 25.9766 24.2177 27.4723 24.7229 29.5093C24.8921 30.1906 25.5116 30.7996 26.4496 31.0434C27.3432 31.2744 28.5239 31.1729 29.8796 30.4869C31.1186 28.5153 33.7739 26.4619 35.7409 25.3594C35.6336 24.7808 35.3081 23.8206 35.0701 22.5431C34.6862 20.4769 33.9606 19.3336 32.9642 19.0758C32.6294 18.9894 32.2654 19.0023 31.8734 19.1131C31.6552 19.1749 31.4592 19.1761 31.2901 19.1318C30.3217 18.8809 30.1841 17.1461 31.3531 16.5908C31.9212 16.3213 33.3481 16.1229 34.2651 16.3609C34.4856 16.4169 34.6757 16.4998 34.8181 16.6118L35.4411 17.1251C35.6709 15.6014 36.8562 14.4943 37.5831 14.5888L37.4763 14.5833Z" fill="white"/>
</svg>
