<svg width="56" height="56" viewBox="0 0 56 56" fill="none" xmlns="http://www.w3.org/2000/svg">
<path d="M28 56C43.464 56 56 43.464 56 28C56 12.536 43.464 0 28 0C12.536 0 0 12.536 0 28C0 43.464 12.536 56 28 56Z" fill="#D62300"/>
<path fill-rule="evenodd" clip-rule="evenodd" d="M34.8855 31.5589C36.0767 32.6952 37.2667 33.828 38.4579 34.9632C38.6165 35.1149 38.7775 35.263 38.9397 35.4124C39.3842 35.8219 39.8439 36.2454 40.2662 36.733C40.6139 37.1355 41.0817 37.783 41.336 38.5799C41.6254 39.4817 41.5262 40.3905 41.0572 41.1372C40.5824 41.8944 39.7949 42.3867 38.8382 42.5232C38.564 42.5629 38.2829 42.5839 38.0017 42.5839C36.4127 42.5839 34.9299 41.955 34.0327 40.9039C33.1915 39.9169 32.4869 38.8937 31.8044 37.902C31.207 37.0329 30.6424 36.2139 29.9902 35.41C29.7137 35.0682 29.4652 34.766 29.2354 34.4884C29.8175 33.7405 30.4219 32.967 31.088 32.1224C31.1032 32.1235 31.1172 32.1247 31.13 32.1259C31.3984 32.1725 31.6795 32.1959 31.9689 32.1959C32.8894 32.1959 33.909 31.9474 34.8855 31.5589ZM38.9708 13.4489C39.077 13.4489 39.1878 13.4664 39.308 13.5049C39.3745 13.5353 39.455 13.5924 39.4958 13.6834C39.6872 14.2096 39.5005 14.6308 39.1447 15.0193C37.4927 16.8299 36.9653 16.6643 35.3157 18.4761C34.9015 18.9311 34.8105 19.4234 35.0882 19.7116C35.1978 19.8236 35.3378 19.8796 35.4953 19.8796C35.7438 19.8796 36.0332 19.7408 36.3085 19.4689C38.0492 17.7446 38.2778 17.6069 40.0057 15.8686C40.3008 15.5723 40.6088 15.3833 40.9787 15.3833C41.0965 15.3833 41.2213 15.4031 41.3532 15.4439C41.4488 15.4754 41.5002 15.5198 41.541 15.6236C41.6985 16.1299 41.5468 16.5499 41.1875 16.9151C41.0872 17.0189 41.002 17.1356 40.9052 17.2429C39.3278 18.9813 39.2648 19.1341 37.691 20.8759C37.5778 20.9996 37.4308 21.1501 37.418 21.2994C37.3958 21.5374 37.3923 21.8676 37.5323 22.0064C37.6233 22.0951 37.8065 22.1406 37.9792 22.1406C38.0713 22.1406 38.1612 22.1278 38.2323 22.1021C38.5007 22.0053 38.7375 21.7813 38.9498 21.5724C39.6898 20.846 40.052 20.4323 40.3702 20.0513L40.6058 19.7674C40.9228 19.3854 41.2793 18.9662 42.0088 18.2299C42.3308 17.9068 42.6598 17.6944 43.0798 17.6944C43.1615 17.6944 43.2467 17.7026 43.3365 17.7189C43.5045 17.7761 43.522 17.8181 43.5862 17.9593C43.6107 18.4738 43.3913 18.9358 42.9328 19.5879C40.505 23.2886 39.2263 24.8414 36.7343 27.6239C35.8232 28.6424 33.5202 29.8243 31.9697 29.8243C31.8017 29.8243 31.6442 29.8114 31.4972 29.7823C31.3408 29.7508 31.174 29.7683 31.0247 29.7204C30.8683 29.6691 30.7237 29.6458 30.5907 29.6458C30.1368 29.6458 29.8043 29.9211 29.4753 30.3376C27.2493 33.1516 25.7478 35.1466 23.4997 37.9431C22.8487 38.7516 22.2105 39.5706 21.5408 40.3616C20.8175 41.2156 20.107 41.5866 18.9648 41.6881C18.861 41.6974 18.7583 41.7021 18.6557 41.7021C17.2242 41.7021 16.0272 40.8026 16.0715 39.3373C16.1042 38.2068 16.6 37.2676 17.419 36.5303C19.6695 34.5073 21.9468 32.5146 24.216 30.5126C25.588 29.3028 26.2122 28.8956 27.576 27.6753C27.6985 27.5656 27.7848 27.3311 27.7685 27.1678C27.7502 26.9815 27.7256 26.7957 27.6978 26.6102L27.5177 25.4983C27.3602 24.4588 28.0602 22.3833 28.731 21.6028C31.111 18.8343 37.1345 14.6028 37.9582 13.9401C38.2895 13.6741 38.5905 13.4489 38.9708 13.4489ZM14.9129 13.4164C15.3341 13.4164 15.9711 13.5447 16.6069 14.149C18.8924 16.319 21.1744 18.4937 23.4564 20.6684C24.1611 21.3392 24.8646 22.0112 25.5692 22.682C25.2169 23.7635 25.0326 24.9267 25.1726 25.853C25.2017 26.0502 25.2344 26.245 25.2671 26.441C25.2729 26.4702 25.2776 26.4994 25.2822 26.5285C24.9451 26.8155 24.6464 27.0582 24.3384 27.3102C23.8472 27.7104 23.3397 28.1234 22.6467 28.7347L21.1359 30.0647C21.1126 30.0869 21.0869 30.109 21.0624 30.13C19.3544 28.4955 17.3746 26.4235 15.9582 23.8347C14.9362 22.5035 12.2226 16.9012 12.4221 15.8092L12.4617 15.5922L12.4676 15.5817C12.4722 15.3659 12.4944 15.0124 12.7044 14.6682L12.8036 14.5072L13.0567 14.2937C13.0929 14.2645 13.1314 14.2354 13.1641 14.2015C13.8151 13.554 14.4742 13.4164 14.9129 13.4164Z" fill="white"/>
</svg>
