<svg width="56" height="56" viewBox="0 0 56 56" fill="none" xmlns="http://www.w3.org/2000/svg">
<path d="M28 56C43.464 56 56 43.464 56 28C56 12.536 43.464 0 28 0C12.536 0 0 12.536 0 28C0 43.464 12.536 56 28 56Z" fill="#D62300"/>
<path fill-rule="evenodd" clip-rule="evenodd" d="M21.9099 17.3336C22.8328 15.1473 24.6388 13.5268 27.5053 13.4241C29.2926 13.36 31.3004 13.6971 32.2711 15.3678C32.6164 15.9628 32.8544 16.6383 33.0143 17.3511L30.1664 17.3465C29.7231 16.1973 28.8493 16.0328 27.5053 16.1063C26.3199 16.1705 25.4963 16.643 24.9293 17.3383L21.9099 17.3336ZM39.2244 19.8665L16.1256 19.8315L15.5469 39.6345C15.5236 41.2095 15.3159 42.305 17.3564 42.4263C19.4191 42.5476 22.1398 42.5838 24.9864 42.5838C29.1211 42.5838 33.5218 42.508 36.5528 42.508C41.2451 42.508 40.5089 41.4265 40.3048 38.6288C39.9396 33.6425 39.2244 19.8665 39.2244 19.8665Z" fill="white"/>
</svg>
